<?xml version="1.0" encoding="UTF-8"?>
<svg width="133px" height="43px" viewBox="0 0 133 43" version="1.1" xmlns="http://www.w3.org/2000/svg" xmlns:xlink="http://www.w3.org/1999/xlink">
    <title>Group</title>
    <g id="Symbols" stroke="none" stroke-width="1" fill="none" fill-rule="evenodd">
        <g id="Section/header-Centered---SEARCH" transform="translate(-531.000000, -16.000000)" fill="#FFFFFF" fill-rule="nonzero">
            <g id="Group" transform="translate(531.000000, 16.000000)">
                <path d="M85.2488106,3.58657453 C83.7478143,5.80301357 83.7063527,8.98260454 84.2558285,11.4891573 C84.8362902,14.1530167 86.4741317,16.2384705 89.382836,16.6656569 C92.2002365,17.0686224 94.7357868,15.738729 95.7786109,13.1716456 C96.7778784,10.7214865 96.8878177,7.65878774 96.0046646,5.16428105 C95.3564971,3.23224351 93.7065258,1.7765841 91.6654266,1.3358727 C89.331009,0.852290487 86.5985164,1.57767346 85.2488106,3.57851522 M92.6605039,17.4997741 C92.6605039,17.7799209 93.1518673,18.0741071 93.3384443,18.2231829 C93.6908675,18.5132967 94.0558615,18.7873347 94.4248252,19.0533348 C95.2301276,19.6317404 96.0790969,20.1504513 96.9645657,20.6048593 C97.6837471,21.0112543 98.4615923,21.310692 99.2719671,21.4934197 C99.8711747,21.6122731 100.491003,21.6062715 101.09021,21.7130145 C101.523462,21.7936076 102.062462,21.9144973 101.994094,22.4524991 C101.917346,23.0772029 100.857982,22.9966098 100.40808,22.9966098 C98.6333931,22.9966098 96.8173551,22.795127 95.1753233,22.1039768 C93.4752895,21.4027525 91.9702131,20.2623386 90.5521399,19.12589 L89.5154909,18.303776 C89.186886,18.0181635 88.7863851,17.8221465 88.3544572,17.7355518 C87.4887268,17.5264598 86.6529898,17.2137328 85.8666539,16.8046585 C82.991141,15.2913943 81.1086101,12.5147903 81.0049562,9.32917633 C80.9013024,6.14354088 82.4272198,3.06671684 85.2322701,1.36812066 C89.5783448,-1.26764902 95.2999285,0.0197532993 98.0119109,4.24361198 C98.8747743,5.58771637 99.3579778,7.12915599 99.4130026,8.71260691 C99.4959257,11.9607127 97.9471824,14.9850977 94.9701107,16.5869928 C94.2339476,16.9723822 93.4566538,17.2784645 92.6522336,17.4997741" id="Shape"></path>
                <path d="M47.5272946,0.252236915 C50.9568926,0.286897272 54.3842496,0.252236915 57.8117187,0.31722422 C58.6142999,0.328056014 59.4190101,0.40820737 60.2215913,0.377880422 C60.8219307,0.349718449 61.2959948,0.0637722301 61.8710118,0.00528330934 C62.9580764,-0.109528404 62.7726412,1.67763345 62.7874312,2.37300672 C62.8126414,3.152859 63.2319154,4.40061804 62.819028,5.10032357 C62.6625006,5.33961161 62.3470928,5.40316674 62.1143745,5.2422741 C62.0600324,5.20460882 62.0129734,5.15638942 61.9763345,5.10032357 C61.7404789,4.74288935 61.7340923,4.23381463 61.7003667,3.80056593 C61.6077051,2.72827481 61.3443984,1.74912721 60.1183975,1.64514152 C59.4274135,1.58665606 58.7343006,1.70795925 58.0391709,1.70795925 C57.2744609,1.70795925 56.5118799,1.70795925 55.7535565,1.70795925 C55.7872822,6.01881958 55.7135563,10.3253361 55.7535565,14.6318181 C55.7535565,15.4789125 55.6482339,16.4450288 55.8440892,17.2725359 C55.9663308,17.7989742 56.6130569,17.7793869 57.0322188,17.7945959 C57.4514927,17.8098049 58.0412997,17.744821 58.4309937,17.9981889 C58.9555903,18.3383171 58.5721709,18.9664943 58.0581065,18.9947231 C57.3019121,19.0336674 56.5077342,18.8452833 55.7408954,18.8148654 C54.7760724,18.7759211 53.8133782,18.8148654 52.8464263,18.8603771 C52.2144902,18.8906798 51.468716,19.0423088 50.8451833,18.9058888 C50.622325,18.8728208 50.4392428,18.7082872 50.3775057,18.485683 C50.2721831,18.0133979 50.5713443,17.8118788 50.9968928,17.7707454 C51.5720219,17.7165922 52.4715224,18.048079 52.9476034,17.5541326 C53.3478296,17.1209069 53.3078293,16.3042305 53.3035716,15.7561309 C53.2909105,14.0100932 53.2466526,12.2619816 53.2466526,10.5159669 C53.2466526,7.86013233 53.3478296,5.19130095 53.1919744,2.53981012 C53.1750555,2.26685491 53.153991,1.9917451 53.1307976,1.71445763 C52.8148295,1.71445763 52.4988615,1.71445763 52.1850223,1.70362699 C51.5993609,1.68413183 51.0284896,1.68413183 50.4492148,1.65813829 C49.6886506,1.62564637 48.112956,1.22488959 47.6979398,2.13254344 C47.3082458,2.97305883 47.4662299,4.0106919 47.1629229,4.88586534 C46.859504,5.76102726 46.0653261,5.27362535 46.0147936,4.54576015 C45.9369221,3.57311093 46.1875677,2.56363754 46.2760835,1.5974867 C46.3434228,0.824129353 46.5224714,-0.391142366 47.5272946,0.252236915" id="Path"></path>
                <path d="M68.9346862,1.65412042 C68.9154537,2.15646911 69.4782027,2.68696472 69.7262902,3.07887939 C70.1392762,3.74144897 70.5437271,4.39753463 70.945902,5.05793907 C71.7632252,6.38958519 72.5805484,7.72556161 73.4513583,9.0139048 C74.551137,7.35746356 75.5717099,5.64689365 76.6115152,3.94714947 C76.9581549,3.37551607 78.6977263,1.44841992 77.1785886,1.3098505 C76.8511814,1.28602237 76.2949191,1.36830947 76.0916694,1.03052348 C75.5374556,0.0864640367 77.1122423,0.164413941 77.5894124,0.21421463 C78.4991425,0.288171681 79.413766,0.276573172 80.3216753,0.179569972 C80.7602667,0.140595019 81.7402123,-0.108411877 81.9369753,0.484874149 C82.3157071,1.59782659 80.8843104,1.21240736 80.39007,1.40078668 C79.6969044,1.66061586 79.3203349,2.60467761 78.971533,3.20229278 C77.9915873,4.92152328 76.8790628,6.57363422 75.8242356,8.24739663 C75.3684602,8.98359273 74.7736192,9.72410762 74.4356284,10.5274348 C74.0654318,11.4152488 74.2023351,12.6082679 74.2216814,13.5588597 C74.2430761,14.5808552 74.2965628,15.6071119 74.3157953,16.6312956 C74.3157953,17.1077432 74.3500496,17.3805747 74.8656847,17.4974697 C75.2903923,17.5631151 75.7212452,17.5783172 76.1493668,17.5429608 C76.6029801,17.5429608 77.2320754,17.6035388 77.2727025,18.1925049 C77.3218648,18.9633204 76.5645151,19.0391005 75.9889066,18.98716 C74.448488,18.8442373 73.0277887,18.6818512 71.4765589,18.824774 C70.802512,18.883279 68.4596783,19.2816431 68.7100418,17.9587151 C68.8170153,17.3848359 69.5402246,17.3545469 69.9938378,17.3501705 C70.3232934,17.3501705 70.6527491,17.3501705 70.9886914,17.3653726 C71.2198225,17.3653726 71.2903795,17.4303271 71.3888179,17.1921609 C71.4885081,16.9393684 71.5548545,16.6743682 71.5856947,16.4039552 C71.705414,15.5378963 71.5856947,14.6284193 71.5856947,13.7428972 C71.5856947,12.8572598 71.6968789,11.8807554 71.4829318,10.9886342 C71.2967524,10.2048048 70.7105603,9.50758138 70.2698067,8.8406815 C69.7135444,7.99838167 69.1828875,7.13011159 68.6351604,6.28131632 C68.1280604,5.48666124 67.6145875,4.70716219 67.1096498,3.89951623 C66.6816419,3.24993753 66.3628836,2.51157628 65.8815028,1.89014449 C65.4536087,1.346658 65.0256009,1.35964889 64.4158519,1.1864256 C64.1204229,1.11018477 63.941982,0.806032271 64.0172048,0.507068059 C64.0672775,0.308977824 64.2201131,0.15429994 64.4158519,0.103785214 C65.1796883,-0.125734206 66.1275419,0.186066565 66.8913783,0.261851322 C67.9483676,0.363618998 68.9283133,0.0453227855 69.9659564,0.0020175388 C70.3211312,-0.0109744959 70.8068365,0.0301667553 71.0100861,0.383106474 C71.156435,0.634482363 71.073815,0.958371105 70.8254999,1.10652245 C70.8017154,1.12068804 70.7769066,1.13291882 70.7511875,1.14312265 C70.1692061,1.35964889 69.3818127,1.08032187 68.9346862,1.63679924" id="Path"></path>
                <path d="M27.8721539,1.00620688 C28.3109682,0.989654105 28.9933478,1.00620688 29,1.57106678 C29,2.19179298 28.3416618,2.17317235 27.8457783,2.15662068 C27.4333395,2.14006901 26.7158315,2.05523068 26.4656139,2.46490656 C26.1650962,2.95321389 26.2287009,3.70635896 26.2309183,4.2443213 C26.2309183,7.96866748 26.2681475,11.6930577 26.2681475,15.4174039 C26.2681475,15.9574242 26.0312345,17.2340158 26.5029598,17.6540805 C26.7816536,17.9044466 27.4134995,17.8175063 27.7580155,17.829942 C28.1025314,17.8423778 28.6620196,17.8113434 28.8792094,18.0989067 C29.2830119,18.6224193 28.4601184,19.0237754 28.0190866,18.9989038 C26.1848195,18.8747663 24.3768111,18.6306732 22.5336743,18.7920079 C22.1430596,18.8272243 21.0854704,18.9989038 21.0920059,18.3927429 C21.0920059,17.9106094 21.8994943,17.883757 22.257198,17.8527226 C22.614785,17.8216882 23.09538,17.8361049 23.4135204,17.6458267 C23.7316607,17.4554385 23.7381963,16.9588883 23.7623544,16.6650521 C23.8457991,15.6057011 23.7162556,14.5318234 23.7162556,13.4724724 C23.7162556,10.5757208 23.668056,7.67900222 23.7865125,4.78228363 C23.8194236,4.0270696 24.0717418,2.64284804 23.1128859,2.33870007 C22.7573996,2.22489632 20.3285157,2.17937923 21.1797688,1.32070734 C21.7195337,0.776538129 23.2818761,1.15104281 23.9555027,1.206908 C25.2719457,1.31450047 26.5622465,1.05586519 27.8786894,1" id="Path"></path>
                <path d="M115.693701,1.41597689 C115.25186,1.06863254 113.408817,1.46373356 113.444432,0.651820474 C113.482272,-0.127527782 114.231286,0.048313996 114.752146,0.10909868 C115.546792,0.229389841 116.352566,0.264309021 117.153889,0.213301985 C117.719267,0.154686904 120.134365,-0.46618656 119.994134,0.727800462 C119.868371,1.83061473 118.023102,0.773386377 117.621328,1.56141766 C117.331961,2.13236162 117.436578,2.96599037 117.443256,3.58686175 C117.443256,4.56158976 117.443256,5.54065929 117.443256,6.50887502 C117.443256,8.46267256 117.547873,10.4164816 117.51671,12.3702214 C117.500016,14.0005991 117.412093,15.6657321 116.197866,16.857455 C115.210681,17.82783 113.833964,18.4118562 112.519571,18.6962486 C109.747217,19.2975947 105.880054,19.1304002 103.672521,17.0507449 C102.502812,15.9479306 102.381389,14.1221847 102.358463,12.5916849 C102.324963,10.592313 102.379386,8.58858806 102.385619,6.58269234 C102.385619,5.58407444 102.385619,4.58980961 102.368924,3.584691 C102.358463,3.06584523 102.352119,2.53832798 102.335425,2.01948221 C102.320734,1.61135664 102.381389,1.32262275 101.944112,1.2379632 C101.433602,1.13158452 100.897829,1.27486608 100.391549,1.17065816 C100.021159,1.09034012 99.839081,0.558473267 100.182314,0.315333377 C100.847635,-0.181800192 102.019458,0.0982448906 102.774817,0.130807413 C103.710139,0.161200332 104.647575,0.195934767 105.580783,0.130807413 C106.097636,0.0873899467 107.531002,-0.340274984 107.507964,0.651820474 C107.480808,1.7372606 105.356969,0.686554909 105.07862,1.65260104 C104.890309,2.29300925 105.007503,3.05499144 105.032655,3.70843574 C105.072388,4.70270057 104.990697,5.70564843 104.974003,6.69991326 C104.923809,8.75574796 104.88608,10.8246072 104.911233,12.8826589 C104.927927,14.2154811 105.137273,15.3747581 106.183444,16.2365952 C107.826045,17.5934343 110.301465,17.8257516 112.298095,17.3676986 C113.275264,17.1506228 114.254658,16.7163558 114.973623,15.9782981 C115.888467,15.0360968 116.0031,13.8355985 115.971938,12.5569297 C115.926307,10.6292275 115.921855,8.70582053 115.921855,6.77590133 C115.921855,5.81636863 115.900709,4.85032365 115.921855,3.88862019 C115.943001,3.06584523 116.0031,2.19532514 115.68591,1.40946461" id="Path"></path>
                <path d="M124.82596,2.67301887 C124.692972,4.68743019 124.806219,6.7164148 124.767778,8.73082612 C125.617655,8.82990912 126.473766,8.86878601 127.328838,8.84724671 C127.773517,8.84724671 128.219235,8.84724671 128.66807,8.84724671 C129.117944,8.84724671 129.338205,8.75162459 129.512752,8.27555956 C129.68626,7.79949453 129.613532,6.83282434 130.043666,6.51683348 C130.824971,5.94306759 130.838478,7.25483103 130.809387,7.68100626 C130.756399,8.51254718 130.797958,9.36072909 130.809387,10.19227 C130.809387,10.5914216 131.040038,12.7908962 130.576657,12.8677433 C129.559506,13.0278507 129.73717,11.2691246 129.473271,10.6454689 C129.264439,10.1548527 127.943908,10.281667 127.520008,10.2858244 C126.625455,10.2858244 125.730902,10.3627379 124.839466,10.3066119 C124.728297,12.2379288 124.788557,14.1691683 124.772972,16.0942159 C124.772972,16.7074447 124.823882,17.1335867 125.425445,17.2562104 C126.037399,17.3577149 126.656624,17.3959726 127.27585,17.3706517 C128.383392,17.3706517 129.906522,17.8029858 130.930946,17.2708058 C132.010436,16.7074447 131.375625,14.7762051 132.136151,13.9861727 C132.575635,13.5267487 132.942391,14.1026044 132.984989,14.5287464 C133.042132,15.1046021 132.920573,15.6825586 132.880053,16.2584143 C132.817715,17.0067614 132.880053,17.9423057 132.622389,18.6553805 C132.44992,19.1188957 131.630173,18.9858783 131.268611,18.9712829 C129.675871,18.9048295 128.097676,18.7759033 126.49974,18.7883978 C124.593231,18.7883978 122.661786,19.0399477 120.76151,18.9692926 C120.370858,18.9546972 119.67267,18.5722308 120.175531,18.1065042 C120.520469,17.7739055 121.163592,17.8362678 121.596842,17.7904912 C121.839961,17.7903807 122.069573,17.6780401 122.228536,17.4828817 C122.46646,17.2209381 122.377108,16.6762635 122.382303,16.2978883 C122.402043,15.3124763 122.406199,14.325074 122.413472,13.3375611 C122.42594,11.3377341 122.413472,9.33370545 122.413472,7.32759805 C122.413472,6.37963653 122.413472,5.42751753 122.413472,4.47746621 C122.413472,3.95151138 122.671137,2.86219543 122.218146,2.47551629 C121.71009,2.05974583 120.356312,2.62311801 120.085141,1.9163016 C119.800463,1.15751995 120.695016,1.13673143 121.148007,1.15959869 C122.124639,1.20117685 123.087763,1.15959869 124.04881,1.15959869 C125.953242,1.15959869 127.857674,1.15959869 129.762105,1.21572804 C130.125744,1.24084322 130.490423,1.21779904 130.848867,1.14712624 C131.104454,1.08268083 131.311209,0.887266941 131.565756,1.08891705 C132.022903,1.45271897 131.956409,2.42770523 131.979266,2.95989629 C132.003163,3.49208735 132.594337,6.02830706 131.664459,5.97424872 C130.687827,5.91812269 130.833283,3.56484331 130.409383,2.98276245 C129.92834,2.32376815 128.660797,2.62311801 127.994818,2.66678265 C126.945458,2.73745987 125.908566,2.5274959 124.859207,2.67717636" id="Path"></path>
                <path d="M4.9436158,2.47332018 C4.9436158,6.32622814 5.06841541,10.1916043 4.93321676,14.0403562 C4.91241866,14.632596 4.87913066,15.2228462 4.87705085,15.8192863 C4.87705085,16.2348932 4.79593829,16.926945 5.05592549,17.2739104 C5.40743535,17.7644592 6.59508379,17.6105962 7.10882982,17.6230865 C8.04895884,17.6438669 8.98076863,17.6563572 9.92505727,17.6105962 C11.4184266,17.5357649 12.7538189,17.2781107 13.8395235,16.1891322 C14.9252281,15.1002643 15.5034814,13.6621097 15.8175547,12.2198654 C16.4892888,9.11927222 15.9443345,5.5011932 13.2113769,3.52278283 C12.1172646,2.74347571 10.8152709,2.45461787 9.49659447,2.36525133 C8.73948865,2.31122244 7.97615446,2.31122244 7.20866066,2.31122244 C6.8134748,2.31122244 5.08089426,2.10340794 4.93529656,2.47332018 M0.0412096203,1.80207084 C0.0245701519,1.38851657 0.012090523,1.07887065 0.496715137,1.05601116 C0.969796478,1.03901992 1.44346304,1.05012414 1.9152257,1.08926192 C2.90673043,1.16783926 3.90212927,1.18519195 4.89578019,1.1412161 C6.68451558,1.04146382 8.48366107,0.933400499 10.2744873,1.05185509 C13.7521273,1.28668735 17.082145,3.10923188 18.4424286,6.45506627 C19.7361141,9.62633473 18.6504096,13.5997687 16.5038917,16.1413816 C15.4867765,17.3508419 14.1555881,18.3463088 12.5977226,18.6891845 C10.93382,19.0549407 9.18668079,19.0320602 7.49777625,18.9489388 C6.29556915,18.9011882 5.10585197,18.8325468 3.90572469,18.8388472 C3.29838724,18.8388472 2.68273056,18.8721179 2.07538206,18.8886979 C1.54707736,18.905278 0.606951656,19.0965014 0.155605426,18.7224552 C-0.164703981,18.4523107 0.055769169,17.9867425 0.398958578,17.8766509 C0.871102899,17.7290884 1.38693206,17.8060199 1.85491123,17.6937176 C2.7139277,17.4859141 2.50385592,16.0042093 2.49761649,15.3600186 C2.45600925,12.3820184 2.3312207,9.39566185 2.42689192,6.42389576 C2.46432848,5.27259836 2.66816084,4.05687084 2.48096696,2.90557345 C2.23761823,1.3781264 0.831584313,2.5772219 0.0412096203,1.80207084" id="Shape"></path>
                <path d="M39.8661825,9.20035882 C41.1959639,8.24608207 41.7397555,6.23940427 41.1069819,4.73596469 C40.780311,3.96545301 40.2053922,3.12812575 39.411263,2.77940969 C38.6647595,2.44530954 37.7569005,2.38475791 36.9525421,2.36179005 C36.7664387,2.36179005 36.584405,2.36179005 36.3983015,2.36179005 C36.112877,2.36179005 36.057112,2.29078738 36.0446831,2.61235961 C36.0178455,3.16779751 36.0012369,3.71905943 35.9950775,4.28284927 C35.9805588,5.42504487 35.9950775,6.57976838 36.0075064,7.71361203 C36.0075064,8.28158895 36.0075064,8.85373074 36.0075064,9.41960857 C36.0075064,9.78711652 36.1419144,9.6764421 36.4582462,9.69732197 C36.774688,9.71820184 37.0414142,9.74743366 37.3329982,9.75579671 C38.1974112,9.78294055 39.1382673,9.73072976 39.8661825,9.20871077 M36.057112,10.8416056 C35.9537212,12.7417849 35.9743993,14.6481838 36.0033268,16.5442538 C36.0136658,17.0662506 35.9826486,17.7281869 36.6236715,17.7971571 C37.1386456,17.8617959 37.6576893,17.7595067 38.1725534,17.8221463 C38.5862265,17.8806766 38.9563435,18.1666642 38.7805792,18.6344622 C38.5552093,19.246309 37.2978014,18.9142302 36.8388123,18.8745807 C36.011576,18.8015011 35.1844497,18.7179817 34.3572135,18.7242012 C33.4804816,18.7242012 32.6097992,18.9581002 31.7434064,18.9329999 C31.2967363,18.9184506 30.7093886,18.5154025 31.1643081,18.0456054 C31.4828397,17.7115274 32.1321118,17.7782764 32.5456749,17.7573965 C32.7608158,17.7552863 32.9744167,17.7229669 33.1805383,17.661438 C33.509409,17.5485978 33.4473746,17.1393301 33.4701425,16.8427915 C33.5631942,15.798798 33.4969801,14.7546933 33.4969801,13.7106998 L33.4969801,7.61338865 C33.4969801,6.17258868 33.6045506,4.70464488 33.5362466,3.2659329 C33.5218379,2.94437178 33.5362466,2.46618941 33.3149464,2.20100394 C33.0627388,1.87943171 32.4071973,2.00681003 32.0576484,2.01724996 C31.6440853,2.01724996 31.1374704,1.95459924 31.2077542,1.41586969 C31.2676988,0.927251826 31.9645967,0.99824672 32.3099659,1.01077575 C33.7079413,1.11309379 35.0851286,1.10474073 36.4892634,1.08385975 C37.9368444,1.06297876 39.4712077,1.05044973 40.858844,1.54324357 C43.5884707,2.51212513 44.8809655,5.71947326 43.3403328,8.24608207 C41.7997001,10.772702 38.7413127,11.0650424 36.057112,10.8332536" id="Shape"></path>
                <path d="M59.1473805,38.7486764 L61.0324021,38.7486764 C60.7461005,37.9310368 60.4517608,37.1193376 60.1176542,36.3275808 C59.8055463,37.13928 59.4495466,37.922975 59.1473805,38.7486764 M60.8693149,34.1198055 C61.4838004,35.6374455 62.0465676,37.1830897 62.6331316,38.706776 C62.9115009,39.4301134 63.1984371,40.1513291 63.4941516,40.8707416 C63.6432781,41.2197341 63.794414,41.5746669 63.9534822,41.9237654 C64.1125504,42.2727579 64.40689,42.1769706 64.7488232,42.2747734 C64.993454,42.3464813 65.1028134,42.7672877 64.8761624,42.9168559 C64.6494056,43.0665302 64.3233369,42.9747738 64.0926669,42.9428447 C63.4444428,42.8925643 62.7930459,42.8993532 62.1459852,42.9627871 C61.8457228,42.9627871 61.205431,43.0106278 61.2352563,42.5459055 C61.2630721,42.1151279 62.0942669,42.2268267 62.3766553,42.1869418 C62.2630653,41.5984281 62.0620091,41.030281 61.7800437,40.5017006 C61.6369458,40.2095653 61.5127796,39.9084134 61.4081795,39.6002605 L59.3401872,39.6002605 C58.8390801,39.6002605 58.8092548,39.6840611 58.6024873,40.1347812 C58.3141762,40.7570273 58.1173504,41.4151275 57.8071463,42.0234776 C58.1074087,42.1769706 59.0279736,42.0633624 58.821206,42.6675756 C58.6860404,43.0665302 57.8528361,42.8989289 57.5584965,42.8889577 C57.2204765,42.8730462 56.2918736,43.1182956 56.0552808,42.8032477 C55.9475079,42.6111427 56.001553,42.3684391 56.1805047,42.2408288 C56.2879604,42.202323 56.3992235,42.1762281 56.5126019,42.1630746 C56.7552232,42.1211743 56.7690782,41.9636503 56.8745244,41.7441775 C57.6022825,40.2843494 58.1749915,38.7527073 58.7694877,37.2369767 C59.0658369,36.4751335 59.3660992,35.7153058 59.7021097,34.9634338 C59.9646145,34.3770416 60.1216732,33.7368685 60.8753434,34.1118498" id="Shape"></path>
                <path d="M79.9872787,34.5827292 C79.849016,34.9593758 79.0970947,34.7406257 78.7932735,34.8581325 C78.7682058,35.6073328 78.7472602,36.360626 78.7367875,37.1118728 C78.7137252,38.7318731 78.7263147,40.3518734 78.7912681,41.959703 C78.8079799,42.542929 79.7212262,41.959703 79.9516267,42.4437321 C80.1821387,42.9276535 79.5327167,43.0208189 79.184999,42.9964774 C78.6292747,42.9280843 78.0694281,42.8982499 77.5092473,42.9074048 C77.1678801,42.9545799 76.8237277,42.9815063 76.4786839,42.9883995 C76.0221165,42.9782751 75.9948205,42.747462 76.0116437,42.3444275 C76.1707404,42.1055364 76.5310477,42.1196459 76.7782715,42.1419409 C76.9039445,42.1561581 77.0253838,42.1702675 77.14894,42.1885775 C77.1914995,41.9674578 77.2221379,41.7445072 77.2411894,41.5202641 C77.3207377,40.6434326 77.2704908,39.7585231 77.2642517,38.8878308 C77.2642517,38.0777768 77.2642517,37.2678305 77.2642517,36.4577765 C77.2642517,35.9252799 77.5574888,34.955283 76.8452302,34.8682568 C76.5729387,34.8317446 76.0681297,34.8682568 76.0074101,34.5137976 C75.890093,33.8193117 77.1992984,34.1311195 77.5637279,34.1493218 C78.1586693,34.1918655 80.0270528,33.5660958 79.9915123,34.5988851" id="Path"></path>
                <path d="M88.2372407,34.0435121 C88.4585633,34.2631502 88.4052566,34.6425251 88.3953734,34.936084 C88.4117754,35.2995277 88.4499417,35.6615906 88.5099774,36.0203612 C88.5672795,36.7411947 87.7726211,36.5475776 87.6777835,35.9924285 C87.6007149,35.5590999 87.6164861,35.0499389 87.1499739,34.8402844 C86.5569766,34.5666926 85.6574922,34.624576 85.1415635,35.023918 C84.5919896,35.4533168 84.3251408,36.2540187 84.809422,36.8430482 C85.260163,37.3961793 86.0548214,37.5739715 86.6953426,37.7955213 C88.0791081,38.2648544 89.2789814,39.3511495 88.9429496,40.9665729 C88.6503412,42.3642698 87.3338661,42.9493696 86.0251716,42.9972694 C85.3109463,43.0172365 84.5977724,42.9275969 83.9100427,42.7317494 C83.6688485,42.6618646 83.2162149,42.6358436 83.2102218,42.3642698 C83.1904552,42.0965195 83.1569151,41.8299375 83.1094964,41.5655858 C83.048199,41.1762274 82.886071,40.5511935 83.1311555,40.1957154 C83.4909493,39.6686052 83.838862,40.5252787 83.8961641,40.7948346 C84.082054,41.6994079 84.7007058,42.118717 85.6258447,42.1926377 C86.5509835,42.2664523 87.6737882,41.8671103 87.6737882,40.7688136 C87.6600147,39.2811585 85.6456112,39.0236041 84.6157516,38.5224087 C83.4705518,37.9944488 82.9659784,36.6286143 83.4886362,35.4719032 C83.5297464,35.3807768 83.5767446,35.2925179 83.6293153,35.2076578 C84.6473991,33.4664842 86.6162763,34.1573671 88.2372407,34.0395824" id="Path"></path>
                <path d="M69.9439867,38.0391846 C70.8289806,37.4383268 70.7193789,35.6480026 69.8344972,35.1253276 C69.5395366,34.9677902 69.2032233,34.8934418 68.8652289,34.911017 C68.6672064,34.911017 68.4754596,34.911017 68.2815835,34.911017 C67.8307376,34.911017 67.8243498,34.8629782 67.7948761,35.3116244 C67.7275238,36.2948754 67.8117982,37.2721615 67.7738075,38.2474238 C68.4606667,38.2073737 69.3456605,38.4337206 69.9439867,38.0471733 M70.6288287,38.6479246 C70.913255,39.4029114 71.566382,39.9997217 71.9709442,40.6926095 C72.3755064,41.3854973 72.6030026,42.014369 73.4816086,42.1104466 C73.7850863,42.1425079 74.0632369,42.2426332 73.9873674,42.5971191 C73.8945759,43.0557778 73.4774622,42.9976199 73.0391678,42.9976199 C72.2406897,42.9976199 71.4863661,42.7973695 71.0228566,42.1485794 C70.5592351,41.4996827 70.2053272,40.7808049 69.7775671,40.1159308 C69.566881,39.7634687 69.3351262,39.4110067 69.0885786,39.0704744 L68.3363843,39.0704744 C67.8980899,39.0704744 67.8307376,39.0044343 67.8012639,39.432949 C67.7455666,40.2261751 67.7540837,41.0222771 67.826479,41.8141185 C67.8812798,42.3909037 68.8905561,41.906255 69.1244401,42.3727959 C69.4594086,43.0296813 68.2605149,42.9035661 67.9508735,42.8755524 C67.1080169,42.787357 66.2652724,42.9395686 65.4350793,42.8755524 C64.8177017,42.8194183 64.8830368,42.1445317 65.4688115,42.0964929 C65.6415069,42.0844566 65.8101679,42.0964929 65.980734,42.0964929 C66.3179439,42.0964929 66.1915322,41.9082788 66.2104716,41.6378342 C66.2336694,41.0932169 66.2483502,40.5444455 66.2526088,40.0017455 C66.2526088,39.0424606 66.2526088,38.0772109 66.2420745,37.117926 C66.2420745,36.6332774 66.2420745,36.1547001 66.2420745,35.674099 C66.2420745,35.1933914 66.3747619,34.8729907 65.7721772,34.8590371 C65.561491,34.8490246 65.1864025,34.8970634 65.0494565,34.6927653 C65.0158364,34.4724898 65.0221121,34.1880916 65.2706769,34.0799777 C65.795375,33.8576784 66.6486539,34.1721142 67.2112307,34.1460177 C68.7346707,34.0799777 70.8541957,33.7455168 71.8571961,35.1694253 C72.6472691,36.3028641 72.0425551,38.2214338 70.6414923,38.6379121" id="Shape"></path>
                <path d="M53.3956651,36.5047049 C53.3443665,35.8017008 52.8316096,35.2049596 52.1146888,35.0139894 C51.6978878,34.8881203 51.2565824,34.8518327 50.8230635,34.9080514 L50.8230635,37.5433963 C50.8230635,37.8325054 50.674435,38.2540913 51.0275709,38.288754 C51.4447155,38.3451894 51.8703335,38.3017526 52.2653785,38.1624516 C52.9835588,37.9028058 53.4387193,37.2303482 53.3870772,36.5047049 M48.3127531,34.0282671 C50.3343528,34.0974843 54.9435544,33.3826731 54.9995477,36.3702784 C55.0274871,37.9242534 53.7572744,38.887445 52.2266755,39.0341118 C51.8589974,39.0701827 51.4886857,39.0754905 51.1200915,39.0504683 C50.7670702,39.0239296 50.8681788,39.1217436 50.8466517,39.4129108 C50.8338271,39.6165545 50.8230635,39.8201983 50.8143611,40.023842 C50.8143611,40.4312378 50.6184417,42.0869264 51.0856253,42.1806241 C51.3999437,42.2458335 52.0544588,42.060496 52.2416758,42.3965082 C52.7088594,43.2253815 51.029632,42.9382222 50.6851985,42.9076756 C50.2654203,42.868355 49.8430085,42.8574146 49.4215127,42.875071 C49.0641401,42.8954353 48.6421862,43.0787147 48.2826381,42.9606447 C48.0695428,42.8968435 47.9516018,42.6816094 48.0189312,42.4800238 C48.0406873,42.4150311 48.0805353,42.3565377 48.1341241,42.3109345 C48.3235166,42.1582017 48.6250104,42.1725001 48.8574571,42.1540855 C49.2879989,42.1297132 49.2514716,42.0706782 49.2686474,41.6694567 C49.2815866,41.2193824 49.2967013,40.7693081 49.3031137,40.3151175 C49.3202895,39.3783564 49.3246408,38.4475528 49.3182284,37.5149078 C49.3117016,36.5821545 49.2815866,35.7003122 49.2514716,34.7981054 C48.9716194,34.665737 48.6292471,34.7817489 48.3386314,34.7064657 C48.0135495,34.620892 48.0199618,34.1423293 48.3127531,34.0241509" id="Shape"></path>
            </g>
        </g>
    </g>
</svg>